<svg xmlns="http://www.w3.org/2000/svg" xmlns:xlink="http://www.w3.org/1999/xlink" width="72" height="72" viewBox="0 0 72 72">
  <defs>
    <style>
      .cls-1 {
        fill: url(#linear-gradient);
      }

      .cls-2 {
        fill: #fff;
      }
    </style>
    <linearGradient id="linear-gradient" y1="0.498" x2="0.498" y2="1.494" gradientUnits="objectBoundingBox">
      <stop offset="0" stop-color="#33d35e"/>
      <stop offset="1" stop-color="#2ab6d9"/>
    </linearGradient>
  </defs>
  <g id="Group_22" data-name="Group 22" transform="translate(-450 -1040)">
    <circle id="Oval_Copy" data-name="Oval Copy" class="cls-1" cx="36" cy="36" r="36" transform="translate(450 1040)"/>
    <path id="Combined_Shape" data-name="Combined Shape" class="cls-2" d="M477.1,1096a3.1,3.1,0,0,1-3.092-3.092v-7.24a.587.587,0,0,1,1.174,0v3.523h21.37v-3.852a10.523,10.523,0,0,1-2.89-.568l-4.383,2.391a.565.565,0,0,1-.272.071.61.61,0,0,1-.49-.262.566.566,0,0,1-.071-.526l1.308-3.6h-6.705a.593.593,0,0,1-.416-.172l-4.7-4.7a.591.591,0,0,1-.172-.415v-12.838a.587.587,0,0,1,.587-.587h15.03a.587.587,0,0,1,.587.587v2.4a10.538,10.538,0,0,1,2.583-.468v-4.478h-21.37v20.7a.587.587,0,1,1-1.174,0v-23.8A3.1,3.1,0,0,1,477.1,1056h17.534a3.1,3.1,0,0,1,3.092,3.092v7.57a9.338,9.338,0,1,1,0,18.676v7.57a3.1,3.1,0,0,1-3.092,3.092Zm-1.918-3.092a1.92,1.92,0,0,0,1.918,1.918h17.534a1.92,1.92,0,0,0,1.918-1.918v-2.543h-21.37ZM488.332,1076a7.844,7.844,0,0,0,2.648,5.846.587.587,0,0,1,.157.635l-1.057,2.906,3.252-1.774a.591.591,0,0,1,.281-.072.585.585,0,0,1,.208.039,9.34,9.34,0,0,0,3.317.6c4.855,0,8.806-3.669,8.806-8.18s-3.951-8.18-8.806-8.18S488.332,1071.489,488.332,1076Zm-9.393.979h4.109a.587.587,0,0,1,.587.587v4.109H489.2a8.867,8.867,0,0,1-1.454-8.845h-6.266a.587.587,0,0,1,0-1.174H488.3a9.456,9.456,0,0,1,1.467-1.957h-2.024a.587.587,0,0,1,0-1.174h3.131a.59.59,0,0,1,.213.04,10.139,10.139,0,0,1,1.7-.984v-2.265H478.939Zm3.523,3.866v-2.693h-2.693Zm-7.28-21.753v1.918h21.37v-1.918a1.92,1.92,0,0,0-1.918-1.918H477.1A1.92,1.92,0,0,0,475.181,1059.092Zm9.432,35.029a.587.587,0,0,1-.587-.587v-1.878a.588.588,0,0,1,.587-.588h2.506a.588.588,0,0,1,.587.588v1.878a.587.587,0,0,1-.587.587Zm.588-1.174h1.33v-.7H485.2Zm11.35-10.685v-1.292h-.039a2.468,2.468,0,0,1-2.466-2.465.587.587,0,1,1,1.174,0,1.293,1.293,0,0,0,1.292,1.292h.939a1.6,1.6,0,1,0,0-3.209h-.626a2.779,2.779,0,0,1-.274-5.544v-1.3a.587.587,0,1,1,1.174,0v1.292h.039a2.468,2.468,0,0,1,2.466,2.465v.626a.587.587,0,1,1-1.174,0v-.626a1.293,1.293,0,0,0-1.292-1.292h-.94a1.6,1.6,0,1,0,0,3.209h.626a2.779,2.779,0,0,1,.275,5.544v1.306a.587.587,0,0,1-1.174,0Zm-15.069-6.3a.587.587,0,0,1,0-1.174h4.384a.587.587,0,0,1,0,1.174Zm0-6.262a.587.587,0,0,1,0-1.174h3.757a.587.587,0,0,1,0,1.174Zm3.131-10.02a.587.587,0,1,1,0-1.174h2.506a.587.587,0,1,1,0,1.174Z"/>
  </g>
</svg>
