<svg xmlns="http://www.w3.org/2000/svg" width="20" height="20.001" viewBox="0 0 20 20.001">
  <defs>
    <style>
      .cls-1 {
        fill: #fff;
      }
    </style>
  </defs>
  <path id="Shape" class="cls-1" d="M143.333,95c-2.7,0-3.051-.012-4.123-.06-3.639-.167-5.65-2.178-5.817-5.817-.049-1.071-.06-1.426-.06-4.124s.012-3.055.061-4.123c.167-3.638,2.178-5.65,5.817-5.817,1.071-.049,1.426-.06,4.122-.06s3.057.012,4.125.061c3.64.167,5.652,2.178,5.816,5.817.048,1.075.059,1.431.059,4.122s-.012,3.053-.06,4.124c-.165,3.638-2.176,5.65-5.816,5.817C146.386,94.989,146.031,95,143.333,95Zm0-18.2c-2.673,0-2.989.01-4.041.058a3.757,3.757,0,0,0-4.1,4.1c-.048,1.067-.059,1.386-.059,4.04,0,2.679.01,2.994.059,4.041a3.758,3.758,0,0,0,4.1,4.1c1.048.048,1.363.058,4.041.058s2.994-.01,4.042-.058a3.758,3.758,0,0,0,4.1-4.1c.048-1.071.058-1.39.058-4.041,0-2.674-.01-2.99-.058-4.04a3.758,3.758,0,0,0-4.1-4.1C146.327,76.813,146.012,76.8,143.333,76.8Zm0,13.333A5.135,5.135,0,1,1,148.469,85,5.141,5.141,0,0,1,143.333,90.136Zm0-8.469A3.333,3.333,0,1,0,146.667,85,3.336,3.336,0,0,0,143.333,81.667Zm5.339-.8a1.2,1.2,0,1,1,1.2-1.2A1.2,1.2,0,0,1,148.672,80.862Z" transform="translate(-133.333 -75)"/>
</svg>
