<svg xmlns="http://www.w3.org/2000/svg" xmlns:xlink="http://www.w3.org/1999/xlink" width="72" height="72" viewBox="0 0 72 72">
  <defs>
    <style>
      .cls-1 {
        fill: url(#linear-gradient);
      }

      .cls-2 {
        fill: #fff;
      }
    </style>
    <linearGradient id="linear-gradient" y1="0.498" x2="0.498" y2="1.494" gradientUnits="objectBoundingBox">
      <stop offset="0" stop-color="#33d35e"/>
      <stop offset="1" stop-color="#2ab6d9"/>
    </linearGradient>
  </defs>
  <g id="Group_20" data-name="Group 20" transform="translate(-1020 -1040)">
    <circle id="Oval_Copy_3" data-name="Oval Copy 3" class="cls-1" cx="36" cy="36" r="36" transform="translate(1020 1040)"/>
    <path id="Combined_Shape" data-name="Combined Shape" class="cls-2" d="M1055.414,1095.414v-9.435h-1.333v2.545a.586.586,0,1,1-1.172,0v-2.545h-1.333v5.187a1.839,1.839,0,1,1-1.172,0v-5.187h-1.293a3.094,3.094,0,0,1-3.091-3.091V1081.6h-1.768a1.281,1.281,0,0,0-.913.379l-3.854,3.854a1.84,1.84,0,1,1-1.647-1.021,1.848,1.848,0,0,1,.818.192l3.854-3.854a2.449,2.449,0,0,1,1.742-.722h1.768v-1.333h-2.546a.586.586,0,0,1,0-1.172h2.546v-1.333h-9.435a.586.586,0,0,1,0-1.173h9.435v-1.333h-2.546a.586.586,0,0,1,0-1.172h2.546v-1.333h-5.188a1.839,1.839,0,1,1,0-1.172h5.188v-1.293a3.087,3.087,0,0,1,.1-.772.585.585,0,0,1,.567-.44.577.577,0,0,1,.147.019.587.587,0,0,1,.421.714,1.921,1.921,0,0,0-.06.48v13.778a1.92,1.92,0,0,0,1.919,1.919h13.778a1.924,1.924,0,0,0,.48-.06.584.584,0,0,1,.714.421.587.587,0,0,1-.421.714,3.076,3.076,0,0,1-.772.1H1061.6v1.768a1.278,1.278,0,0,0,.379.914l3.855,3.856a1.859,1.859,0,0,1,.819-.192,1.837,1.837,0,1,1-1.3,3.137,1.838,1.838,0,0,1-.346-2.117l-3.855-3.855a2.449,2.449,0,0,1-.722-1.742v-1.768h-1.333v2.545a.586.586,0,1,1-1.172,0v-2.545h-1.334v9.435a.586.586,0,1,1-1.172,0Zm10.761-1.724a.667.667,0,0,0,.472,1.138.659.659,0,0,0,.471-.2.667.667,0,0,0-.942-.943Zm-15.852-.781a.666.666,0,1,0,.666-.666A.667.667,0,0,0,1050.323,1092.909Zm-12.956-6.734a.667.667,0,1,0,.472-.2A.662.662,0,0,0,1037.367,1086.175Zm1.057-15.185a.666.666,0,1,0,.666-.667A.667.667,0,0,0,1038.425,1070.99Zm26.744,13.092a.583.583,0,0,1-.358-.27.577.577,0,0,1-.063-.444,1.959,1.959,0,0,0,.06-.48v-13.778a1.921,1.921,0,0,0-1.919-1.919h-13.778a1.973,1.973,0,0,0-.481.06.576.576,0,0,1-.147.019.584.584,0,0,1-.566-.44.577.577,0,0,1,.063-.444.584.584,0,0,1,.358-.27,3.077,3.077,0,0,1,.772-.1h1.293v-1.768a1.281,1.281,0,0,0-.379-.913l-3.855-3.856a1.862,1.862,0,0,1-.817.193,1.839,1.839,0,1,1,1.645-1.021l3.856,3.855a2.447,2.447,0,0,1,.722,1.742v1.768h1.333v-2.545a.586.586,0,0,1,1.172,0v2.545h1.333v-9.435a.586.586,0,0,1,1.172,0v9.435h1.334v-2.545a.586.586,0,0,1,1.172,0v2.545h1.333v-5.188a1.839,1.839,0,1,1,1.172,0v5.188h1.293a3.094,3.094,0,0,1,3.091,3.091v1.293h1.767a1.285,1.285,0,0,0,.914-.379l3.854-3.854a1.838,1.838,0,1,1,.829.829l-3.854,3.854a2.449,2.449,0,0,1-1.742.722h-1.768v1.333h2.545a.586.586,0,1,1,0,1.172h-2.545v1.333h9.434a.586.586,0,1,1,0,1.173h-9.434v1.333h2.545a.586.586,0,0,1,0,1.172h-2.545v1.333h5.187a1.839,1.839,0,1,1,0,1.172h-5.187v1.293a3.075,3.075,0,0,1-.1.771.585.585,0,0,1-.567.44A.566.566,0,0,1,1065.169,1084.082Zm7.268-3.542a.655.655,0,0,0-.194.47.666.666,0,1,0,.666-.666A.659.659,0,0,0,1072.437,1080.54Zm1.253-15.658a.669.669,0,1,0,.472-.194A.662.662,0,0,0,1073.69,1064.882Zm-13.347-5.791a.667.667,0,1,0,.667-.667A.667.667,0,0,0,1060.343,1059.091Zm-15.461-1.724a.669.669,0,1,0,.472-.194A.668.668,0,0,0,1044.882,1057.367ZM1056,1081.914a2.787,2.787,0,0,1-2.113.934,2.594,2.594,0,0,1-2.7-2.465,3.025,3.025,0,0,1-1.408-2.5,2.888,2.888,0,0,1,.616-1.777,2.577,2.577,0,0,1-.616-1.668,2.843,2.843,0,0,1,2.171-2.66,2.005,2.005,0,0,1-.058-.472,2.259,2.259,0,0,1,2.347-2.152,2.485,2.485,0,0,0,3.523,0,2.259,2.259,0,0,1,2.347,2.152,2,2,0,0,1-.058.472,2.845,2.845,0,0,1,2.172,2.66,2.572,2.572,0,0,0,0,3.757,2.751,2.751,0,0,1-1.415,2.344,2.612,2.612,0,0,1-2.694,2.313A2.787,2.787,0,0,1,1056,1081.914Zm2.7-7.167a.587.587,0,0,1-.586.586,1.427,1.427,0,0,0-1.528,1.292v3.758a1.549,1.549,0,0,0,3.056,0,1.328,1.328,0,0,0-1-1.213.586.586,0,0,1,.176-1.145.578.578,0,0,1,.176.027,2.614,2.614,0,0,1,1.54,1.24,1.491,1.491,0,0,0,.517-1.1,1.564,1.564,0,0,0-.9-1.361.586.586,0,0,1,0-1.036,1.566,1.566,0,0,0,.9-1.361,1.761,1.761,0,0,0-1.866-1.606h-.032a2.094,2.094,0,0,0-.81.164.586.586,0,0,1-.768-.312.578.578,0,0,1,0-.448.587.587,0,0,1,.315-.32,3.271,3.271,0,0,1,.962-.241.828.828,0,0,0,.087-.368,1.195,1.195,0,0,0-2.351,0,.586.586,0,1,1-1.172,0,1.195,1.195,0,0,0-2.351,0,.869.869,0,0,0,.214.562c.011.014.021.026.03.039l0,0,0,.005a.061.061,0,0,1,.006.011l.006.011a.582.582,0,0,1-.119.756.59.59,0,0,1-.378.139h-.016a1.761,1.761,0,0,0-1.865,1.606,1.415,1.415,0,0,0,.319.886,3.563,3.563,0,0,1,1.075-.438.59.59,0,0,1,.131-.014.586.586,0,0,1,.13,1.156,2,2,0,0,0-1.657,1.855,1.782,1.782,0,0,0,.587,1.291,2.439,2.439,0,0,1,.362-.453.585.585,0,1,1,.825.831,1.183,1.183,0,0,0-.365.836,1.549,1.549,0,0,0,3.056,0v-1.252a1.33,1.33,0,0,0-1-1.213.586.586,0,0,1,.176-1.145.578.578,0,0,1,.176.027,2.8,2.8,0,0,1,.647.3v-3.253a.586.586,0,1,1,1.172,0v.748a2.861,2.861,0,0,1,1.528-.434A.587.587,0,0,1,1058.7,1074.748Z"/>
  </g>
</svg>
