<svg xmlns="http://www.w3.org/2000/svg" xmlns:xlink="http://www.w3.org/1999/xlink" width="72" height="72" viewBox="0 0 72 72">
  <defs>
    <style>
      .cls-1 {
        fill: url(#linear-gradient);
      }

      .cls-2 {
        fill: #fff;
      }
    </style>
    <linearGradient id="linear-gradient" y1="0.498" x2="0.498" y2="1.494" gradientUnits="objectBoundingBox">
      <stop offset="0" stop-color="#33d35e"/>
      <stop offset="1" stop-color="#2ab6d9"/>
    </linearGradient>
  </defs>
  <g id="Group_23" data-name="Group 23" transform="translate(-165 -1040)">
    <circle id="Oval" class="cls-1" cx="36" cy="36" r="36" transform="translate(165 1040)"/>
    <path id="Combined_Shape" data-name="Combined Shape" class="cls-2" d="M208.319,1095.979a.667.667,0,0,1-.666-.666v-6.473l-.383-.612a9.628,9.628,0,0,1-.83-8.553L190.8,1085.7a3.313,3.313,0,0,1-1.2.223,3.353,3.353,0,0,1-3.11-2.135l-2.5-6.5a3.318,3.318,0,0,1-2.988-3.3v-14.659a3.343,3.343,0,0,1,3.332-3.332h26.653a3.341,3.341,0,0,1,3.331,3.332v3.728l4.11,4.118a8.662,8.662,0,0,1,2.553,6.142v21.994a.667.667,0,0,1-.666.666Zm.667-1.333h10.66v-5.33h-10.66Zm-6.2-25.5a2.223,2.223,0,0,0-.1,3.1l5.46,5.957a.664.664,0,0,1,.087.78,8.3,8.3,0,0,0,.168,8.534l.289.462h10.958v-14.665a7.334,7.334,0,0,0-2.162-5.2l-2.159-2.163,2.255,5.856a3.337,3.337,0,0,1-1.91,4.3l-.684.266,2.465,2.465-.942.942-10.617-10.615a2.223,2.223,0,0,0-3.106-.031Zm-16.175,11.241,1.124,2.923a2.012,2.012,0,0,0,1.867,1.281,1.988,1.988,0,0,0,.717-.134l16.074-6.195-.867-.944H194.566Zm-.481-1.241,4.738-1.824H185.43Zm-3.8-19.814v14.659a2,2,0,0,0,2,2h19.974l-2.6-2.842a3.555,3.555,0,0,1,5.131-4.916l6.1,6.1a2.028,2.028,0,0,0,.046-.345v-10.408l-.006-.015h.006v-4.235a2,2,0,0,0-2-2H184.332A2,2,0,0,0,182.333,1059.332Zm31.982,14.659a3.3,3.3,0,0,1-.281,1.332l1.156-.446a2,2,0,0,0,1.148-2.583l-2.022-5.249h0Zm-4,17.99v-1.333h1.333v1.333Zm-13.992-19.323v-1.333h2.665v1.333Zm-11.993,0v-1.333H187v1.333Zm11.993-4v-1.333h2.665v1.333Zm-4,0v-1.333h2.665v1.333Zm-4,0v-1.333h2.665v1.333Zm-4,0v-1.333H187v1.333Zm1.066-3.332a1.735,1.735,0,0,1-1.732-1.733v-3.2a1.735,1.735,0,0,1,1.732-1.733h3.2a1.735,1.735,0,0,1,1.732,1.733v3.2a1.735,1.735,0,0,1-1.732,1.733Zm-.4-1.733a.4.4,0,0,0,.4.4h3.2a.4.4,0,0,0,.4-.4v-.932h-1.332v-1.333H189v-.932a.4.4,0,0,0-.4-.4h-3.2a.4.4,0,0,0-.4.4v.932h1.333v1.333H185Zm23.988-2.265v-2h1.332v2Zm-2.666,0v-2h1.333v2Zm-2.665,0v-2h1.333v2Zm-2.666,0v-2h1.333v2Z"/>
  </g>
</svg>
