<svg xmlns="http://www.w3.org/2000/svg" xmlns:xlink="http://www.w3.org/1999/xlink" width="72" height="72" viewBox="0 0 72 72">
  <defs>
    <style>
      .cls-1 {
        fill: url(#linear-gradient);
      }

      .cls-2 {
        fill: #fff;
      }
    </style>
    <linearGradient id="linear-gradient" y1="0.498" x2="0.498" y2="1.494" gradientUnits="objectBoundingBox">
      <stop offset="0" stop-color="#33d35e"/>
      <stop offset="1" stop-color="#2ab6d9"/>
    </linearGradient>
  </defs>
  <g id="Group_21" data-name="Group 21" transform="translate(-735 -1040)">
    <path id="Oval_Copy_2" data-name="Oval Copy 2" class="cls-1" d="M36,0A36,36,0,1,1,0,36,36,36,0,0,1,36,0Z" transform="translate(735 1040)"/>
    <path id="Combined_Shape" data-name="Combined Shape" class="cls-2" d="M766.989,1096h-4.882l-.443-1.8c-.227-.085-.443-.176-.642-.269l-1.59.963-3.453-3.453.963-1.59c-.1-.207-.187-.423-.269-.642l-1.8-.443v-4.883l1.8-.444c.084-.222.174-.439.269-.642l-.963-1.59.689-.69h-1.153a1.937,1.937,0,0,1-1.935-1.935v-1.291a1.937,1.937,0,0,1,1.935-1.935h1.291a.646.646,0,0,0,.645-.645v-.645H751v-3.226a7.026,7.026,0,0,1,1.273-4.046,7.106,7.106,0,0,1,3.259-2.563,4.517,4.517,0,1,1,5.129,0,7.17,7.17,0,0,1,3.887,3.67,7.178,7.178,0,0,1,3.887-3.67,4.517,4.517,0,1,1,5.129,0,7.115,7.115,0,0,1,3.259,2.563,7.026,7.026,0,0,1,1.273,4.046v3.226h-6.452v.645a.646.646,0,0,0,.645.645h1.291a1.937,1.937,0,0,1,1.936,1.935v1.291a1.937,1.937,0,0,1-1.936,1.935h-1.153l.689.69-.963,1.59c.027.057.049.116.072.173l0,.006h0c.016.04.032.081.049.121h6.286a5.158,5.158,0,1,1,6.66.129,7.1,7.1,0,0,1,5.775,6.968V1096H776.161v-7.42a.968.968,0,0,0-.967-.967h-.968v1.151l-1.8.442c-.08.216-.171.433-.269.643l.963,1.59-3.453,3.452-1.59-.962c-.22.1-.436.193-.642.268l-.443,1.8h0Zm19.5-8.388h1.29v7.1h1.935v-4.516a5.813,5.813,0,0,0-5.806-5.806h-17.1a.967.967,0,1,0,0,1.935h8.387a2.261,2.261,0,0,1,2.258,2.258v6.129h9.032v-7.1h0Zm-25.519,4.84h0l.32.167a7.057,7.057,0,0,0,1.114.466l.345.11.373,1.513h2.859l.372-1.514.346-.109a7.077,7.077,0,0,0,1.112-.465l.321-.167,1.338.81,2.021-2.021-.81-1.338.167-.321a6.955,6.955,0,0,0,.466-1.114l.11-.345,1.513-.372v-.14H770.21a5.83,5.83,0,1,1-.849-4.515h1.5l-.011-.024-.005-.011-.167-.321.81-1.338-2.021-2.021-1.338.81-.321-.167a6.973,6.973,0,0,0-1.112-.465l-.346-.11-.372-1.514h-2.859l-.372,1.514-.346.109a7.173,7.173,0,0,0-1.113.465l-.321.167-1.338-.81-2.021,2.021.81,1.338-.167.321a7.2,7.2,0,0,0-.465,1.113l-.109.346-1.515.372v2.86l1.514.371.109.347a7,7,0,0,0,.466,1.112l.167.321-.809,1.338,2.021,2.021,1.336-.81Zm-.934-6.131a4.516,4.516,0,0,0,8.842,1.291H767.5a3.227,3.227,0,1,1-1.71-4.265,2.228,2.228,0,0,1,1.013-.251h.9a4.512,4.512,0,0,0-7.672,3.226Zm2.581,0a1.931,1.931,0,0,0,3.477,1.163,2.232,2.232,0,0,1-1.33-3.071c-.025,0-.049-.007-.075-.012a.836.836,0,0,0-.137-.015A1.937,1.937,0,0,0,762.613,1086.323Zm15.484-7.1a3.871,3.871,0,1,0,3.871-3.871A3.875,3.875,0,0,0,778.1,1079.226Zm-8.432-1.472h0l1.472,1.472h2.443a.646.646,0,0,0,.645-.645v-1.291a.646.646,0,0,0-.645-.645H772.29a1.938,1.938,0,0,1-1.935-1.935v-.645H758.742v.645a1.938,1.938,0,0,1-1.936,1.935h-1.291a.646.646,0,0,0-.644.645v1.291a.646.646,0,0,0,.644.645h2.443l1.472-1.472,1.59.963c.215-.1.432-.192.642-.269l.444-1.8h4.883l.443,1.8c.213.079.429.169.642.269l1.589-.963Zm3.917-10.14h1.29v5.161h1.935v-1.935a5.806,5.806,0,1,0-11.613,0v1.935h1.936v-5.161h1.29v5.161h5.161v-5.16h0Zm-12.9,0h1.29v5.161H763.9v-1.935a5.806,5.806,0,1,0-11.613,0v1.935h1.936v-5.161h1.29v5.161h5.161v-5.16h0Zm7.1-7.1A3.226,3.226,0,1,0,771,1057.29,3.23,3.23,0,0,0,767.774,1060.516Zm-12.9,0a3.226,3.226,0,1,0,3.226-3.226A3.23,3.23,0,0,0,754.871,1060.516Zm24.516,12.258v-4.516a4.521,4.521,0,0,1,4.516-4.516h2.58a4.516,4.516,0,1,1,0,9.032Zm1.29-4.516v3.227h5.807a3.226,3.226,0,0,0,0-6.452H783.9A3.23,3.23,0,0,0,780.677,1068.258Zm6.452,1.936V1068.9h1.291v1.291Zm-2.581,0V1068.9h1.291v1.291Zm-2.58,0V1068.9h1.291v1.291Zm0-2.58v-1.291h6.451v1.291Z"/>
  </g>
</svg>
