<svg xmlns="http://www.w3.org/2000/svg" width="20" height="16.253" viewBox="0 0 20 16.253">
  <defs>
    <style>
      .cls-1 {
        fill: #fff;
      }
    </style>
  </defs>
  <path id="Path" class="cls-1" d="M20,1.924a8.192,8.192,0,0,1-2.357.646A4.11,4.11,0,0,0,19.448.3a8.22,8.22,0,0,1-2.606,1A4.106,4.106,0,0,0,9.849,5.037,11.648,11.648,0,0,1,1.393.751,4.109,4.109,0,0,0,2.662,6.229,4.086,4.086,0,0,1,.8,5.716,4.106,4.106,0,0,0,4.095,9.791a4.113,4.113,0,0,1-1.853.07A4.106,4.106,0,0,0,6.075,12.71,8.25,8.25,0,0,1,0,14.41a11.616,11.616,0,0,0,6.29,1.843A11.6,11.6,0,0,0,17.952,4.048,8.354,8.354,0,0,0,20,1.924Z"/>
</svg>
