<svg xmlns="http://www.w3.org/2000/svg" width="20" height="20.001" viewBox="0 0 20 20.001">
  <defs>
    <style>
      .cls-1 {
        fill: #fff;
      }
    </style>
  </defs>
  <path id="Shape" class="cls-1" d="M43.333,95a10,10,0,1,1,10-10A10.012,10.012,0,0,1,43.333,95Zm0-14.167c-1.5,0-2.879.034-3.7.09-1.851.127-2.117.982-2.131,4.076.014,3.095.281,3.951,2.131,4.077.822.056,2.205.09,3.7.09s2.879-.034,3.7-.09c1.85-.127,2.117-.982,2.133-4.077-.016-3.094-.283-3.95-2.133-4.076C46.212,80.867,44.828,80.833,43.332,80.833Zm-1.666,6.119v-3.9L45.764,85l-4.1,1.954Z" transform="translate(-33.333 -75)"/>
</svg>
